fd_8_states
version=1
nRows=47
nColumns=17
inDegrees=yes

# SIMM Motion File Header:
name fd_8_states
datacolumns 17
datarows 47
otherdata 1
range 0.030000 0.170869
endheader
time	/jointset/r_shoulder/r_shoulder_elev/value	/jointset/r_shoulder/r_shoulder_elev/speed	/jointset/r_elbow/r_elbow_flex/value	/jointset/r_elbow/r_elbow_flex/speed	/forceset/TRIlong/activation	/forceset/TRIlong/fiber_length	/forceset/TRIlat/activation	/forceset/TRIlat/fiber_length	/forceset/TRImed/activation	/forceset/TRImed/fiber_length	/forceset/BIClong/activation	/forceset/BIClong/fiber_length	/forceset/BICshort/activation	/forceset/BICshort/fiber_length	/forceset/BRA/activation	/forceset/BRA/fiber_length
      0.030000	      0.000000	      0.000000	     21.144320	      5.144416	      0.020000	      0.144741	      0.040601	      0.078388	      0.037575	      0.073466	      0.084596	      0.142426	      0.023924	      0.142196	      0.020000	      0.088256
      0.030306	     -0.000000	     -0.000281	     21.145897	      5.151995	      0.020000	      0.144742	      0.040594	      0.078389	      0.037586	      0.073467	      0.084693	      0.142426	      0.023922	      0.142196	      0.020000	      0.088256
      0.030720	     -0.000000	     -0.000477	     21.148031	      5.161439	      0.020000	      0.144742	      0.040592	      0.078390	      0.037695	      0.073468	      0.085386	      0.142427	      0.023928	      0.142195	      0.020000	      0.088255
      0.032789	     -0.000000	      0.001103	     21.158748	      5.197974	      0.020000	      0.144746	      0.040580	      0.078395	      0.038131	      0.073472	      0.088233	      0.142426	      0.023951	      0.142192	      0.020000	      0.088253
      0.035846	      0.000010	      0.005227	     21.174707	      5.244770	      0.020000	      0.144753	      0.040562	      0.078402	      0.038541	      0.073477	      0.091034	      0.142417	      0.023972	      0.142187	      0.020000	      0.088249
      0.039747	      0.000027	      0.000989	     21.195342	      5.342715	      0.020000	      0.144760	      0.040542	      0.078411	      0.038822	      0.073482	      0.093104	      0.142399	      0.023987	      0.142180	      0.020000	      0.088244
      0.041231	      0.000025	     -0.004706	     21.203307	      5.396403	      0.020000	      0.144764	      0.040704	      0.078415	      0.038802	      0.073485	      0.092865	      0.142392	      0.023990	      0.142178	      0.020000	      0.088242
      0.042715	      0.000013	     -0.011645	     21.211357	      5.455670	      0.020000	      0.144767	      0.040934	      0.078418	      0.038750	      0.073487	      0.092346	      0.142386	      0.023992	      0.142175	      0.020000	      0.088241
      0.049069	     -0.000137	     -0.029883	     21.246791	      5.679888	      0.020000	      0.144780	      0.041447	      0.078429	      0.038541	      0.073500	      0.090264	      0.142371	      0.023998	      0.142162	      0.020000	      0.088232
      0.050317	     -0.000174	     -0.028398	     21.253895	      5.707375	      0.020000	      0.144783	      0.041483	      0.078431	      0.038503	      0.073502	      0.089927	      0.142370	      0.024000	      0.142160	      0.020000	      0.088231
      0.050988	     -0.000192	     -0.026731	     21.257730	      5.719200	      0.020000	      0.144784	      0.041453	      0.078432	      0.038488	      0.073504	      0.090247	      0.142369	      0.024011	      0.142159	      0.020000	      0.088230
      0.051659	     -0.000209	     -0.024571	     21.261573	      5.729350	      0.020000	      0.144786	      0.041422	      0.078433	      0.038474	      0.073506	      0.090603	      0.142368	      0.024020	      0.142157	      0.020000	      0.088229
      0.055015	     -0.000269	     -0.010857	     21.280871	      5.770566	      0.020000	      0.144793	      0.041270	      0.078440	      0.038406	      0.073513	      0.091916	      0.142360	      0.024054	      0.142150	      0.020000	      0.088225
      0.060196	     -0.000282	      0.002908	     21.310974	      5.860621	      0.020000	      0.144805	      0.041051	      0.078452	      0.038310	      0.073526	      0.092958	      0.142343	      0.024083	      0.142139	      0.020000	      0.088218
      0.061922	     -0.000277	      0.002896	     21.321131	      5.906195	      0.020000	      0.144809	      0.041014	      0.078456	      0.038445	      0.073530	      0.093072	      0.142337	      0.024130	      0.142135	      0.020000	      0.088215
      0.063649	     -0.000274	      0.000990	     21.331373	      5.958153	      0.020000	      0.144813	      0.040998	      0.078461	      0.038756	      0.073534	      0.093112	      0.142332	      0.024187	      0.142130	      0.020000	      0.088213
      0.069963	     -0.000295	     -0.006373	     21.369616	      6.153080	      0.020000	      0.144828	      0.040942	      0.078476	      0.039337	      0.073545	      0.093194	      0.142313	      0.024291	      0.142114	      0.020000	      0.088204
      0.073864	     -0.000318	     -0.005573	     21.393829	      6.258689	      0.020000	      0.144837	      0.040991	      0.078486	      0.039130	      0.073553	      0.093834	      0.142302	      0.024288	      0.142105	      0.020000	      0.088199
      0.077765	     -0.000339	     -0.005625	     21.418456	      6.368540	      0.020000	      0.144847	      0.041024	      0.078496	      0.038858	      0.073563	      0.094264	      0.142290	      0.024277	      0.142096	      0.020000	      0.088193
      0.082369	     -0.000380	     -0.013868	     21.448125	      6.524718	      0.020000	      0.144858	      0.041132	      0.078507	      0.038638	      0.073576	      0.094652	      0.142276	      0.024282	      0.142085	      0.020000	      0.088186
      0.086974	     -0.000477	     -0.028608	     21.478571	      6.702344	      0.020000	      0.144870	      0.041433	      0.078518	      0.038711	      0.073588	      0.095210	      0.142261	      0.024333	      0.142073	      0.020000	      0.088179
      0.090204	     -0.000586	     -0.038405	     21.500424	      6.827072	      0.020000	      0.144879	      0.041523	      0.078525	      0.038758	      0.073597	      0.095437	      0.142250	      0.024392	      0.142065	      0.020000	      0.088174
      0.092069	     -0.000662	     -0.043325	     21.513226	      6.897484	      0.020000	      0.144884	      0.041503	      0.078530	      0.039049	      0.073602	      0.095725	      0.142244	      0.024938	      0.142059	      0.020000	      0.088171
      0.095869	     -0.000847	     -0.054571	     21.539715	      7.047073	      0.020000	      0.144894	      0.041455	      0.078540	      0.039473	      0.073610	      0.096155	      0.142231	      0.025720	      0.142040	      0.020000	      0.088165
      0.100972	     -0.001174	     -0.074701	     21.576232	      7.268788	      0.020000	      0.144908	      0.041517	      0.078553	      0.039693	      0.073622	      0.096408	      0.142214	      0.026139	      0.142013	      0.020000	      0.088157
      0.103748	     -0.001398	     -0.085683	     21.596580	      7.391363	      0.020000	      0.144916	      0.042037	      0.078560	      0.039624	      0.073628	      0.096372	      0.142206	      0.026137	      0.142000	      0.020000	      0.088152
      0.106523	     -0.001646	     -0.091686	     21.617249	      7.499383	      0.020000	      0.144923	      0.042391	      0.078566	      0.039554	      0.073636	      0.096334	      0.142197	      0.026132	      0.141990	      0.020000	      0.088148
      0.110324	     -0.001991	     -0.087649	     21.645978	      7.609935	      0.020000	      0.144934	      0.042617	      0.078575	      0.039467	      0.073647	      0.096337	      0.142186	      0.026125	      0.141977	      0.020000	      0.088141
      0.111872	     -0.002123	     -0.082026	     21.657781	      7.642504	      0.020000	      0.144939	      0.042512	      0.078578	      0.039459	      0.073652	      0.096863	      0.142182	      0.026122	      0.141972	      0.020000	      0.088138
      0.113887	     -0.002279	     -0.073146	     21.673225	      7.680202	      0.020000	      0.144945	      0.042360	      0.078584	      0.039453	      0.073658	      0.097478	      0.142174	      0.026119	      0.141966	      0.020000	      0.088135
      0.119264	     -0.002615	     -0.054235	     21.714815	      7.798072	      0.020000	      0.144961	      0.041978	      0.078600	      0.039438	      0.073674	      0.098424	      0.142153	      0.026111	      0.141950	      0.020000	      0.088125
      0.121053	     -0.002710	     -0.051898	     21.728807	      7.850319	      0.020000	      0.144966	      0.041884	      0.078606	      0.039523	      0.073680	      0.098739	      0.142146	      0.026108	      0.141944	      0.020000	      0.088122
      0.123236	     -0.002823	     -0.051964	     21.746025	      7.923959	      0.020000	      0.144973	      0.041863	      0.078613	      0.039963	      0.073686	      0.099432	      0.142137	      0.026105	      0.141938	      0.020000	      0.088118
      0.127911	     -0.003075	     -0.056364	     21.783474	      8.100925	      0.020000	      0.144988	      0.041822	      0.078629	      0.040485	      0.073697	      0.100323	      0.142116	      0.026099	      0.141925	      0.020000	      0.088110
      0.131067	     -0.003258	     -0.059407	     21.809244	      8.225780	      0.020000	      0.144997	      0.041905	      0.078640	      0.040612	      0.073705	      0.100611	      0.142102	      0.026107	      0.141915	      0.020000	      0.088104
      0.134224	     -0.003448	     -0.059826	     21.835404	      8.345812	      0.020000	      0.145008	      0.042519	      0.078649	      0.040441	      0.073714	      0.100616	      0.142089	      0.026179	      0.141905	      0.020000	      0.088098
      0.137381	     -0.003629	     -0.053981	     21.861918	      8.448617	      0.020000	      0.145018	      0.042890	      0.078657	      0.040271	      0.073724	      0.100614	      0.142077	      0.026222	      0.141895	      0.020000	      0.088092
      0.140164	     -0.003765	     -0.042782	     21.885534	      8.521335	      0.020000	      0.145027	      0.043054	      0.078664	      0.040130	      0.073734	      0.100653	      0.142067	      0.026245	      0.141886	      0.020000	      0.088086
      0.141848	     -0.003830	     -0.033800	     21.899919	      8.558617	      0.020000	      0.145033	      0.042955	      0.078669	      0.040097	      0.073740	      0.101295	      0.142061	      0.026268	      0.141881	      0.020000	      0.088083
      0.144950	     -0.003909	     -0.017894	     21.926578	      8.630309	      0.020000	      0.145043	      0.042748	      0.078679	      0.040053	      0.073751	      0.102267	      0.142047	      0.026298	      0.141870	      0.020000	      0.088077
      0.150383	     -0.003964	     -0.007053	     21.973919	      8.813720	      0.020000	      0.145061	      0.042418	      0.078698	      0.039988	      0.073770	      0.103178	      0.142022	      0.026328	      0.141852	      0.020000	      0.088066
      0.153273	     -0.003991	     -0.012285	     21.999583	      8.947633	      0.020000	      0.145072	      0.042367	      0.078709	      0.040487	      0.073780	      0.103531	      0.142009	      0.026378	      0.141842	      0.020000	      0.088060
      0.157685	     -0.004071	     -0.023540	     22.039541	      9.165580	      0.020000	      0.145087	      0.042318	      0.078725	      0.040985	      0.073793	      0.103857	      0.141990	      0.026425	      0.141826	      0.020000	      0.088051
      0.161785	     -0.004180	     -0.028680	     22.077514	      9.354621	      0.020000	      0.145102	      0.042329	      0.078741	      0.041125	      0.073806	      0.104042	      0.141972	      0.026441	      0.141812	      0.020000	      0.088042
      0.165885	     -0.004297	     -0.027331	     22.116221	      9.524477	      0.020000	      0.145117	      0.042639	      0.078756	      0.040757	      0.073820	      0.104262	      0.141955	      0.026437	      0.141797	      0.020000	      0.088033
      0.169985	     -0.004400	     -0.022822	     22.155599	      9.683485	      0.020000	      0.145132	      0.042802	      0.078770	      0.040395	      0.073836	      0.104383	      0.141939	      0.026433	      0.141783	      0.020000	      0.088024
      0.170869	     -0.004420	     -0.021781	     22.164176	      9.717239	      0.020000	      0.145136	      0.042803	      0.078773	      0.040426	      0.073840	      0.104743	      0.141935	      0.026511	      0.141780	      0.020000	      0.088022
